<svg xmlns="http://www.w3.org/2000/svg" viewBox="0 0 512 512" role="img" aria-label="消防方案助手">
  <rect width="512" height="512" rx="118" fill="#122b2f"/>
  <path d="M256 76c72 48 139 55 139 55v118c0 91-55 153-139 188-84-35-139-97-139-188V131s67-7 139-55Z" fill="#f8f2e8"/>
  <path d="M286 143c9 55-38 70-25 111 11-22 39-33 46-65 35 39 54 80 42 122-12 48-51 80-98 80-55 0-97-39-97-94 0-41 25-70 61-105-1 29 8 47 23 59-3-43 9-79 48-108Z" fill="#ef5b3f"/>
  <path d="M256 362c-27 0-48-19-48-46 0-19 11-34 28-51 1 20 8 29 18 35-3-24 3-43 22-60 6 29 27 43 27 75 0 27-20 47-47 47Z" fill="#ffc857"/>
</svg>
